<?xml version="1.0" encoding="utf-8"?>
<!-- Generator: Adobe Illustrator 23.0.1, SVG Export Plug-In . SVG Version: 6.00 Build 0)  -->
<svg version="1.1" id="Слой_1" xmlns="http://www.w3.org/2000/svg" xmlns:xlink="http://www.w3.org/1999/xlink" x="0px" y="0px"
	 viewBox="0 0 571 107" style="enable-background:new 0 0 571 107;" xml:space="preserve">
<style type="text/css">
	.st0{display:none;fill:none;stroke:#5CA053;stroke-width:1.5;stroke-miterlimit:10;}
	.st1{display:none;fill:none;stroke:#5CA053;stroke-width:1.25;stroke-miterlimit:10;}
	.st2{display:none;fill:none;stroke:#5CA053;stroke-miterlimit:10;}
	.st3{display:none;fill:none;stroke:#5CA053;stroke-width:0.75;stroke-miterlimit:10;}
	.st4{display:none;fill:none;stroke:#5CA053;stroke-width:0.5;stroke-miterlimit:10;}
	.st5{fill:none;stroke:#5CA053;stroke-width:1.5;stroke-miterlimit:10;}
	.st6{font-family:'FiraSans-Regular';}
	.st7{font-size:48px;}
	.st8{fill:#5CA053;}
	.st9{font-size:60px;}
	.st10{display:none;fill:#5CA053;}
	.st11{fill:none;stroke:#5CA053;stroke-width:3;stroke-miterlimit:10;}
	.st12{fill:none;stroke:#5CA053;stroke-width:2.5;stroke-miterlimit:10;}
	.st13{fill:none;stroke:#5CA053;stroke-width:2;stroke-miterlimit:10;}
	.st14{fill:none;stroke:#5CA053;stroke-miterlimit:10;}
</style>
<path class="st0" d="M521-114.99h-0.12c-0.18,0-0.35,0.01-0.53,0.01c-0.31,0-0.62,0.01-0.93,0.01C465.25-114.12,422-96.55,422-75
	s43.25,39.12,97.42,39.97c0.31,0,0.62,0.01,0.93,0.01c0.18,0,0.35,0.01,0.53,0.01H521"/>
<path class="st1" d="M521-35h-0.99c-0.33,0-0.65,0-0.97-0.01h-0.95C461.99-35.61,417-53.28,417-75s44.99-39.39,101.09-39.99h0.95
	c0.32-0.01,0.64-0.01,0.97-0.01H521"/>
<path class="st2" d="M521-35.01h-0.12C520.59-35,520.3-35,520.01-35h-2c-0.32,0-0.65,0-0.97-0.01C459.41-35.4,413-53.16,413-75
	s46.41-39.6,104.04-39.99c0.32-0.01,0.65-0.01,0.97-0.01h2c0.29,0,0.58,0,0.87,0.01H521"/>
<path class="st3" d="M521-114.97c-0.22-0.01-0.43-0.01-0.65-0.01c-0.44-0.01-0.87-0.01-1.31-0.01c-0.34-0.01-0.69-0.01-1.03-0.01h-2
	C456.82-114.8,409-96.97,409-75s47.82,39.8,107.01,40h2c0.34,0,0.69,0,1.03-0.01c0.44,0,0.87,0,1.31-0.01c0.22,0,0.43,0,0.65-0.01"
	/>
<path class="st4" d="M521-114v-0.94c-0.52-0.01-1.05-0.02-1.58-0.03c-0.44,0-0.88-0.01-1.33-0.02h-1.05
	c-0.34-0.01-0.68-0.01-1.03-0.01H515c-60.75,0-110,17.91-110,40s49.25,40,110,40h1.01c0.35,0,0.69,0,1.03-0.01h1.05
	c0.45-0.01,0.89-0.02,1.33-0.02c0.53-0.01,1.06-0.02,1.58-0.03V-36"/>
<polyline class="st0" points="521,-35 521,-35.01 521,-35.03 521,-35.06 "/>
<polyline class="st5" points="150,-83 150,-82.99 150,-82.97 150,-82.94 "/>
<polyline class="st0" points="521,-35.06 521,-35.03 521,-35.01 521,-35 "/>
<polyline class="st5" points="150,-83 150,-82.99 150,-82.97 150,-82.94 "/>
<text transform="matrix(1 0 0 1 546 -79.5)" style="display:none; font-family:'MyriadPro-Regular'; font-size:12px;">Теплицы</text>
<text transform="matrix(1 0 0 1 447 -60)" class="st10" style="font-family:'MyriadPro-Regular'; font-size:23px;">Новосибирска</text>
<text transform="matrix(1 0 0 1 169 36.5)" class="st6 st7">Теплицы</text>
<text transform="matrix(1 0 0 1 165 94)" class="st8 st6 st9">Новосибирска</text>
<rect x="-47" y="143" transform="matrix(0.7071 0.7071 -0.7071 0.7071 105.8209 81.5259)" class="st10" width="3" height="51"/>
<rect x="-41.91" y="155.41" transform="matrix(0.7071 0.7071 -0.7071 0.7071 111.528 79.7477)" class="st10" width="2.83" height="38.18"/>
<rect x="-37.91" y="166.06" transform="matrix(0.7071 0.7071 -0.7071 0.7071 116.2351 78.3837)" class="st10" width="2.83" height="26.87"/>
<rect x="-20.91" y="166.06" transform="matrix(0.7071 -0.7071 0.7071 0.7071 -132.6371 38.7858)" class="st10" width="2.83" height="26.87"/>
<rect x="-16.91" y="155.41" transform="matrix(0.7071 -0.7071 0.7071 0.7071 -127.93 40.1497)" class="st10" width="2.83" height="38.18"/>
<rect x="-62" y="183" class="st10" width="3" height="35"/>
<rect x="-53" y="185" class="st10" width="3" height="33"/>
<rect x="-45" y="187" class="st10" width="3" height="31"/>
<rect x="-14" y="187" class="st10" width="3" height="31"/>
<rect x="-6" y="186" class="st10" width="3" height="32"/>
<rect x="2" y="183" class="st10" width="3" height="35"/>
<rect x="-13" y="143" transform="matrix(0.7071 -0.7071 0.7071 0.7071 -122.5158 41.2208)" class="st10" width="3" height="51"/>
<path class="st11" d="M138.7,94c0.01-0.1,0.01-0.19,0.01-0.28C138.71,56.24,122.53,4,70.85,4S3,56.24,3,93.72
	c0,0.1,0,0.19,0.01,0.28"/>
<path class="st12" d="M132.02,91.54c0.01-0.09,0.01-0.17,0.01-0.25c0-33.54-14.59-80.29-61.17-80.29S9.69,57.75,9.69,91.29
	c0,0.09,0,0.17,0.01,0.25"/>
<path class="st13" d="M124.84,89.09c0-0.08,0-0.15,0-0.22c0-29.6-12.88-70.86-53.99-70.86S16.87,59.26,16.87,88.86
	c0,0.08,0,0.15,0,0.22"/>
<path class="st5" d="M118.31,86.49c0-0.07,0-0.13,0-0.2C118.31,60.27,107,24,70.85,24S23.4,60.27,23.4,86.29c0,0.07,0,0.13,0,0.2"/>
<path class="st14" d="M113,84.13c0-0.06,0-0.12,0-0.18c0-23.11-10.05-55.32-42.15-55.32S28.71,60.85,28.71,83.95
	c0,0.06,0,0.12,0,0.18"/>
</svg>
