<?xml version="1.0" encoding="utf-8"?>
<!-- Generator: Adobe Illustrator 23.0.1, SVG Export Plug-In . SVG Version: 6.00 Build 0)  -->
<svg version="1.1" id="Слой_1" xmlns="http://www.w3.org/2000/svg" xmlns:xlink="http://www.w3.org/1999/xlink" x="0px" y="0px"
	 viewBox="0 0 700 350" style="enable-background:new 0 0 700 350;" xml:space="preserve">
<style type="text/css">
	.st0{display:none;fill:none;stroke:#5CA053;stroke-width:1.5;stroke-miterlimit:10;}
	.st1{display:none;fill:none;stroke:#5CA053;stroke-width:1.25;stroke-miterlimit:10;}
	.st2{display:none;fill:none;stroke:#5CA053;stroke-miterlimit:10;}
	.st3{display:none;fill:none;stroke:#5CA053;stroke-width:0.75;stroke-miterlimit:10;}
	.st4{display:none;fill:none;stroke:#5CA053;stroke-width:0.5;stroke-miterlimit:10;}
	.st5{fill:none;stroke:#5CA053;stroke-width:1.5;stroke-miterlimit:10;}
	.st6{display:none;}
	.st7{font-family:'MyriadPro-Regular';}
	.st8{font-size:12px;}
	.st9{display:none;fill:#5CA053;}
	.st10{font-size:23px;}
	.st11{font-size:48px;}
	.st12{fill:#5CA053;}
	.st13{font-size:60px;}
	.st14{fill:none;stroke:#5CA053;stroke-width:3;stroke-miterlimit:10;}
	.st15{fill:none;stroke:#5CA053;stroke-width:2.5;stroke-miterlimit:10;}
	.st16{fill:none;stroke:#5CA053;stroke-width:2;stroke-miterlimit:10;}
	.st17{fill:none;stroke:#5CA053;stroke-miterlimit:10;}
</style>
<path class="st0" d="M613,13.01h-0.12c-0.18,0-0.35,0.01-0.53,0.01c-0.31,0-0.62,0.01-0.93,0.01C557.25,13.88,514,31.45,514,53
	s43.25,39.12,97.42,39.97c0.31,0,0.62,0.01,0.93,0.01c0.18,0,0.35,0.01,0.53,0.01H613"/>
<path class="st1" d="M613,93h-0.99c-0.33,0-0.65,0-0.97-0.01h-0.95C553.99,92.39,509,74.72,509,53s44.99-39.39,101.09-39.99h0.95
	c0.32-0.01,0.64-0.01,0.97-0.01H613"/>
<path class="st2" d="M613,92.99h-0.12C612.59,93,612.3,93,612.01,93h-2c-0.32,0-0.65,0-0.97-0.01C551.41,92.6,505,74.84,505,53
	s46.41-39.6,104.04-39.99c0.32-0.01,0.65-0.01,0.97-0.01h2c0.29,0,0.58,0,0.87,0.01H613"/>
<path class="st3" d="M613,13.03c-0.22-0.01-0.43-0.01-0.65-0.01c-0.44-0.01-0.87-0.01-1.31-0.01C610.7,13,610.35,13,610.01,13h-2
	C548.82,13.2,501,31.03,501,53s47.82,39.8,107.01,40h2c0.34,0,0.69,0,1.03-0.01c0.44,0,0.87,0,1.31-0.01c0.22,0,0.43,0,0.65-0.01"/>
<path class="st4" d="M613,14v-0.94c-0.52-0.01-1.05-0.02-1.58-0.03c-0.44,0-0.88-0.01-1.33-0.02h-1.05C608.7,13,608.36,13,608.01,13
	H607c-60.75,0-110,17.91-110,40s49.25,40,110,40h1.01c0.35,0,0.69,0,1.03-0.01h1.05c0.45-0.01,0.89-0.02,1.33-0.02
	c0.53-0.01,1.06-0.02,1.58-0.03V92"/>
<polyline class="st0" points="613,93 613,92.99 613,92.97 613,92.94 "/>
<polyline class="st5" points="242,45 242,45.01 242,45.03 242,45.06 "/>
<polyline class="st0" points="613,92.94 613,92.97 613,92.99 613,93 "/>
<polyline class="st5" points="242,45 242,45.01 242,45.03 242,45.06 "/>
<text transform="matrix(1 0 0 1 638 48.5)" class="st6 st7 st8">Теплицы</text>
<text transform="matrix(1 0 0 1 539 68)" class="st9 st7 st10">Новосибирска</text>
<text transform="matrix(1 0 0 1 303 188.5)" class="st7 st11">Теплицы</text>
<text transform="matrix(1 0 0 1 299 246)" class="st12 st7 st13">Новосибирска</text>
<rect x="45" y="271" transform="matrix(0.7071 0.7071 -0.7071 0.7071 223.2767 53.9624)" class="st9" width="3" height="51"/>
<rect x="50.09" y="283.41" transform="matrix(0.7071 0.7071 -0.7071 0.7071 228.9838 52.1842)" class="st9" width="2.83" height="38.18"/>
<rect x="54.09" y="294.06" transform="matrix(0.7071 0.7071 -0.7071 0.7071 233.6909 50.8202)" class="st9" width="2.83" height="26.87"/>
<rect x="71.09" y="294.06" transform="matrix(0.7071 -0.7071 0.7071 0.7071 -196.2006 141.3299)" class="st9" width="2.83" height="26.87"/>
<rect x="75.09" y="283.41" transform="matrix(0.7071 -0.7071 0.7071 0.7071 -191.4935 142.6939)" class="st9" width="2.83" height="38.18"/>
<rect x="30" y="311" class="st9" width="3" height="35"/>
<rect x="39" y="313" class="st9" width="3" height="33"/>
<rect x="47" y="315" class="st9" width="3" height="31"/>
<rect x="78" y="315" class="st9" width="3" height="31"/>
<rect x="86" y="314" class="st9" width="3" height="32"/>
<rect x="94" y="311" class="st9" width="3" height="35"/>
<rect x="79" y="271" transform="matrix(0.7071 -0.7071 0.7071 0.7071 -186.0793 143.7649)" class="st9" width="3" height="51"/>
<path class="st14" d="M272.7,246c0.01-0.1,0.01-0.19,0.01-0.28c0-37.48-16.18-89.72-67.85-89.72S137,208.24,137,245.72
	c0,0.1,0,0.19,0.01,0.28"/>
<path class="st15" d="M266.02,243.54c0.01-0.09,0.01-0.17,0.01-0.25c0-33.54-14.59-80.29-61.17-80.29s-61.17,46.75-61.17,80.29
	c0,0.09,0,0.17,0.01,0.25"/>
<path class="st16" d="M258.84,241.09c0-0.08,0-0.15,0-0.22c0-29.6-12.88-70.86-53.99-70.86s-53.99,41.26-53.99,70.86
	c0,0.08,0,0.15,0,0.22"/>
<path class="st5" d="M252.31,238.49c0-0.07,0-0.13,0-0.2c0-26.02-11.32-62.29-47.46-62.29s-47.46,36.27-47.46,62.29
	c0,0.07,0,0.13,0,0.2"/>
<path class="st17" d="M247,236.13c0-0.06,0-0.12,0-0.18c0-23.11-10.05-55.32-42.15-55.32s-42.15,32.21-42.15,55.32
	c0,0.06,0,0.12,0,0.18"/>
</svg>
