<?xml version="1.0" encoding="utf-8"?>
<!-- Generator: Adobe Illustrator 23.0.1, SVG Export Plug-In . SVG Version: 6.00 Build 0)  -->
<svg version="1.1" xmlns="http://www.w3.org/2000/svg" xmlns:xlink="http://www.w3.org/1999/xlink" x="0px" y="0px"
	 viewBox="0 0 700 350" style="enable-background:new 0 0 700 350;" xml:space="preserve">
<style type="text/css">
	.st0{display:none;}
	.st1{display:inline;fill:#7CD16F;}
	.st2{display:inline;fill:#74C469;}
	.st3{display:inline;fill:#6CB762;}
	.st4{display:inline;fill:#65AA5B;}
	.st5{font-family:'FiraSans-Light';}
	.st6{font-size:48px;}
	.st7{fill:#5CA053;}
	.st8{font-family:'FiraSans-Bold';}
	.st9{font-size:60px;}
	.st10{fill:none;stroke:#5CA053;stroke-miterlimit:10;}
	.st11{fill:none;stroke:#5CA053;stroke-width:2;stroke-miterlimit:10;}
	.st12{fill:none;stroke:#5CA053;stroke-width:3;stroke-miterlimit:10;}
	.st13{fill:none;stroke:#5CA053;stroke-width:4;stroke-miterlimit:10;}
	.st14{fill:#2ACCFF;}
</style>
<g id="Слой_2" class="st0">
	<path class="st1" d="M349.97,9C161.42,9,8.49,161.58,7.93,350h49.6C58.09,188.97,188.81,58.6,349.97,58.6S641.84,188.97,642.4,350
		H692C691.44,161.58,538.51,9,349.97,9z"/>
</g>
<g id="Слой_2__x28_копия_x29_" class="st0">
	<path class="st2" d="M349.97,21.4C168.27,21.4,20.89,168.42,20.33,350h37.2C58.09,188.97,188.81,58.6,349.97,58.6
		S641.84,188.97,642.4,350h37.2C679.04,168.42,531.67,21.4,349.97,21.4z"/>
</g>
<g id="Слой_2__x28_копия2_x29_" class="st0">
	<path class="st3" d="M349.97,33.8C175.11,33.8,33.29,175.26,32.73,350h24.8C58.09,188.97,188.81,58.6,349.97,58.6
		S641.84,188.97,642.4,350h24.8C666.64,175.26,524.83,33.8,349.97,33.8z"/>
</g>
<g id="Слой_2__x28_копия3_x29_" class="st0">
	<path class="st4" d="M654.8,350h-12.4C641.84,188.97,511.13,58.6,349.97,58.6S58.09,188.97,57.53,350h-12.4
		C45.69,182.12,181.97,46.2,349.97,46.2S654.24,182.12,654.8,350z"/>
</g>
<g id="Слой_2__x28_копия4_x29_" class="st0">
</g>
<g id="Слой_1">
	<text transform="matrix(1 0 0 1 421 175)" class="st5 st6">Теплицы</text>
	<text transform="matrix(1 0 0 1 207.2363 238)" class="st7 st8 st9">Новосибирска</text>
	<path class="st10" d="M418,290.7c-1.84-0.01-3.67-0.03-5.5-0.06c-0.03,0-0.05,0-0.08,0c-3.83-0.05-7.64-0.14-11.42-0.25
		C260.75,286.3,150.5,244.26,150.5,193S260.75,99.7,401,95.61c3.78-0.11,7.59-0.2,11.42-0.25c0.03,0,0.05,0,0.08,0
		c1.83-0.03,3.66-0.05,5.5-0.06"/>
	<path class="st11" d="M418,290.7c-1.83,0.01-3.66,0.02-5.5,0.02c-1.81,0-3.62-0.01-5.43-0.02c-0.02,0-0.05,0-0.07,0
		c-2-0.01-4.01-0.04-6-0.07c-145.44-2.15-261.5-45.04-261.5-97.63S255.56,97.52,401,95.37c1.99-0.03,4-0.06,6-0.07
		c0.02,0,0.05,0,0.07,0c1.81-0.01,3.62-0.02,5.43-0.02c1.84,0,3.67,0.01,5.5,0.02"/>
	<path class="st12" d="M412.5,290.64c-0.03,0-0.05,0-0.08,0c-1.78,0.03-3.56,0.05-5.35,0.06c-0.02,0-0.05,0-0.07,0
		c-1.83,0.01-3.66,0.02-5.5,0.02c-0.17,0-0.33,0-0.5,0c-150.54-0.1-272.5-43.81-272.5-97.72S250.46,95.38,401,95.28
		c0.17,0,0.33,0,0.5,0c1.84,0,3.67,0.01,5.5,0.02c0.02,0,0.05,0,0.07,0c1.79,0.01,3.57,0.03,5.35,0.06c0.03,0,0.05,0,0.08,0"/>
	<ellipse class="st13" cx="390.5" cy="193" rx="273" ry="97.72"/>
	<path class="st14" d="M412.5,290.64c1.83,0.03,3.66,0.05,5.5,0.06c-1.83,0.01-3.66,0.02-5.5,0.02c-1.81,0-3.62-0.01-5.43-0.02H407
		c-1.83,0.01-3.66,0.02-5.5,0.02H401v-0.33c3.78,0.11,7.59,0.2,11.42,0.25H412.5z"/>
	<path class="st14" d="M412.42,95.36c-3.83,0.05-7.64,0.14-11.42,0.25v-0.33h0.5c1.84,0,3.67,0.01,5.5,0.02h0.07
		c1.81-0.01,3.62-0.02,5.43-0.02c1.84,0,3.67,0.01,5.5,0.02c-1.84,0.01-3.67,0.03-5.5,0.06H412.42z"/>
</g>
</svg>
